<svg viewBox="0 0 1000 500" xmlns="http://www.w3.org/2000/svg"><defs><linearGradient id="a" x1="0%" y1="0%" x2="0%" y2="100%"><stop offset="0%" stop-color="#F3B03D"/><stop offset="100%" stop-color="#F3B03D" stop-opacity=".75"/></linearGradient><linearGradient id="b" x1="0%" y1="0%" x2="0%" y2="100%"><stop offset="0%"/><stop offset="100%" stop-opacity="0"/></linearGradient><linearGradient id="j" x1="0%" y1="100%" x2="0%" y2="0%"><stop offset="0%" stop-color="#F3B03D" stop-opacity=".2"/><stop offset="50%" stop-color="#F3B03D"/><stop offset="100%" stop-color="#F3B03D" stop-opacity=".2"/><animate attributeName="y2" values="320%;-640%" dur="1s" repeatCount="indefinite"/></linearGradient><linearGradient id="g" x1="0%" y1="100%" x2="0%" y2="0%"><stop offset="0%" stop-color="#F3B03D" stop-opacity=".2"/><stop offset="50%" stop-color="#F3B03D"/><stop offset="100%" stop-color="#F3B03D" stop-opacity=".2"/><animate attributeName="y2" values="100%;-640%" dur="1s" repeatCount="indefinite"/></linearGradient><linearGradient id="h" x1="90%" y1="80%" x2="0%" y2="0%"><stop offset="0%" stop-color="#F3B03D" stop-opacity=".2"/><stop offset="50%" stop-color="#F3B03D"/><stop offset="100%" stop-color="#F3B03D" stop-opacity=".2"/><animate attributeName="x1" values="0%;80%" dur="1s" repeatCount="indefinite"/><animate attributeName="y1" values="0%;640%" dur="1s" repeatCount="indefinite"/></linearGradient><linearGradient id="i" x1="0%" y1="80%" x2="90%" y2="0%"><stop offset="0%" stop-color="#F3B03D" stop-opacity=".2"/><stop offset="50%" stop-color="#F3B03D"/><stop offset="100%" stop-color="#F3B03D" stop-opacity=".2"/><animate attributeName="x2" values="0%;80%" dur="1s" repeatCount="indefinite"/><animate attributeName="y1" values="0%;640%" dur="1s" repeatCount="indefinite"/></linearGradient><linearGradient id="m" x1="90%" y1="0%" x2="0%" y2="80%"><stop offset="0%" stop-color="#F3B03D" stop-opacity=".2"/><stop offset="50%" stop-color="#F3B03D"/><stop offset="100%" stop-color="#F3B03D" stop-opacity=".2"/><animate attributeName="x2" values="100%;80%" dur="1s" repeatCount="indefinite"/><animate attributeName="y1" values="100%;-640%" dur="1s" repeatCount="indefinite"/></linearGradient><linearGradient id="n" x1="0%" y1="80%" x2="90%" y2="0%"><stop offset="0%" stop-color="#F3B03D" stop-opacity=".2"/><stop offset="50%" stop-color="#F3B03D"/><stop offset="100%" stop-color="#F3B03D" stop-opacity=".2"/><animate attributeName="x2" values="0%;80%" dur="1s" repeatCount="indefinite"/><animate attributeName="y2" values="100%;-640%" dur="1s" repeatCount="indefinite"/></linearGradient><g id="e"><rect x="-500" y="-25" width="1000" height="50" rx="25" ry="25" fill="url(#a)"/><text text-anchor="middle" dominant-baseline="middle" font-size="24" font-variant="small-caps" font-family="Tahoma, Geneva, Verdana, sans-serif">
                unicity uniqueness prover
            </text></g><g id="l"><rect x="-50" y="-50" width="100" height="70" rx="5" ry="5"/><rect x="-45" y="-45" width="90" height="60" rx="5" ry="5"/><path d="M-40-40h5v5h-5zM-50 25l-10 20H60L50 25z"/><path fill="url(#b)" fill-opacity=".5" d="m-50 25-10 20H60L50 25z"/><path d="m-60 45 5 5H55l5-5z"/><path fill-opacity=".5" d="m-60 45 5 5H55l5-5z"/></g><g id="c"><path d="M-50 0 0-25 50 0 0 25z"/><path fill-opacity=".2" d="M-50 0 0-25 50 0 0 25z"/><path d="M-50 0 0 25v25l-50-25z"/><path fill-opacity=".4" d="M-50 0 0 25v25l-50-25z"/><path d="M0 25 50 0v25L0 50z"/><path fill="#8F0E24" d="m10 30 5-2.5v5L10 35zM16 27l5-2.5v5L16 32z"/><path fill="#333" d="m22 24 20-10v5L22 29z"/><path fill-opacity=".1" d="M0 25 50 0v25L0 50z"/></g><g id="f"><use href="#c" y="30"/><use href="#c"/><use href="#c" y="-30"/></g><g id="d" stroke-width="2" fill="none"><circle r="10" cy="-20"/><path d="M-15 0a15 10 0 0 1 30 0"/></g><g id="k"><use href="#d"/><text y="20" text-anchor="middle" dominant-baseline="text-after-edge" font-size="14" fill="#EBF6EA" font-variant="small-caps" font-family="Tahoma, Geneva, Verdana, sans-serif">
                user
            </text></g></defs><use href="#e" x="500" y="75"/><g transform="translate(100 250)"><g transform="scale(.3)"><circle r="300" fill="#F3B03D" fill-opacity=".05" stroke="#F3B03D" stroke-width="2" stroke-opacity=".5" stroke-dasharray="20,10"/>/&gt;<use href="#f" x="-150.21" y="-130.735" fill="#FCC565"/><use href="#f" x="150" y="-130.735" fill="#C18723"/><use href="#f" y="160.47" fill="#FFA200"/><path stroke="url(#g)" stroke-width="4" d="m0 0 1 100"/><path stroke="url(#h)" stroke-width="4" d="m0 0-90-80"/><path stroke="url(#i)" stroke-width="4" d="m0 0 90-80"/></g><path stroke="url(#j)" stroke-width="2" d="m0 0 1-150"/><text text-anchor="middle" dominant-baseline="middle" font-size="16" fill="#EBF6EA" font-variant="small-caps" font-family="Tahoma, Geneva, Verdana, sans-serif">
            subscriptions agent
        </text><path stroke="#F3B03D" stroke-width="2" stroke-opacity=".5" stroke-dasharray="5,2" d="M0 95v40"/><use href="#k" y="170" stroke="#F3B03D"/></g><g transform="translate(300 250)"><g transform="scale(.3)"><circle r="300" fill="#76B5CF" fill-opacity=".05" stroke="#76B5CF" stroke-width="2" stroke-opacity=".5" stroke-dasharray="20,10"/>/&gt;<use href="#f" x="-150.21" y="-130.735" fill="#76B5CF"/><use href="#f" x="150" y="-130.735" fill="#5EC9F7"/><use href="#f" y="160.47" fill="#3E9EC7"/><path stroke="url(#g)" stroke-width="4" d="m0 0 1 100"/><path stroke="url(#h)" stroke-width="4" d="m0 0-90-80"/><path stroke="url(#i)" stroke-width="4" d="m0 0 90-80"/></g><path stroke="url(#j)" stroke-width="2" d="m0 0 1-150"/><text text-anchor="middle" dominant-baseline="middle" font-size="16" fill="#EBF6EA" font-variant="small-caps" font-family="Tahoma, Geneva, Verdana, sans-serif">
            trading (clob) agent
        </text><path stroke="#F3B03D" stroke-width="2" stroke-opacity=".5" stroke-dasharray="5,2" d="m0 95-25 40"/><use href="#k" x="-25" y="170" stroke="#F3B03D"/><path stroke="#F3B03D" stroke-width="2" stroke-opacity=".5" stroke-dasharray="5,2" d="m0 95 25 40"/><use href="#k" x="25" y="170" stroke="#F3B03D"/></g><g transform="matrix(.3 0 0 .3 500 250)"><circle r="300" fill="#86CE76" fill-opacity=".05" stroke="#86CE76" stroke-width="2" stroke-opacity=".5" stroke-dasharray="20,10"/>/&gt;<use href="#f" x="-150.21" y="-130.735" fill="#86CE76"/><use href="#f" x="150" y="-130.735" fill="#198A00"/><use href="#f" y="160.47" fill="#52C738"/><path stroke="url(#g)" stroke-width="4" d="m0 0 1 100"/><path stroke="url(#h)" stroke-width="4" d="m0 0-90-80"/><path stroke="url(#i)" stroke-width="4" d="m0 0 90-80"/></g><path stroke="url(#j)" stroke-width="2" d="m0 0 1-150" transform="translate(500 250)"/><text text-anchor="middle" dominant-baseline="middle" font-size="16" fill="#EBF6EA" font-variant="small-caps" font-family="Tahoma, Geneva, Verdana, sans-serif" transform="translate(500 250)">
            lottery Agent
        </text><g transform="matrix(.3 0 0 .3 700 250)"><circle r="300" fill="#DEA6ED" fill-opacity=".05" stroke="#DEA6ED" stroke-width="2" stroke-opacity=".5" stroke-dasharray="20,10"/>/&gt;<use href="#f" x="-150.21" y="-130.735" fill="#9243A8"/><use href="#f" x="150" y="-130.735" fill="#DEA6ED"/><use href="#f" y="160.47" fill="#760096"/><path stroke="url(#g)" stroke-width="4" d="m0 0 1 100"/><path stroke="url(#h)" stroke-width="4" d="m0 0-90-80"/><path stroke="url(#i)" stroke-width="4" d="m0 0 90-80"/></g><path stroke="url(#j)" stroke-width="2" d="m0 0 1-150" transform="translate(700 250)"/><text text-anchor="middle" dominant-baseline="middle" font-size="16" fill="#EBF6EA" font-variant="small-caps" font-family="Tahoma, Geneva, Verdana, sans-serif" transform="translate(700 250)">
            investment fund agent
        </text><g transform="matrix(.3 0 0 .3 900 250)"><circle r="300" fill="#FF9CAC" fill-opacity=".05" stroke="#FF9CAC" stroke-width="2" stroke-opacity=".5" stroke-dasharray="20,10"/>/&gt;<use href="#f" x="-150.21" y="-130.735" fill="#AD384B"/><use href="#f" x="150" y="-130.735" fill="#AD5867"/><use href="#f" y="160.47" fill="#FF9CAC"/><path stroke="url(#g)" stroke-width="4" d="m0 0 1 100"/><path stroke="url(#h)" stroke-width="4" d="m0 0-90-80"/><path stroke="url(#i)" stroke-width="4" d="m0 0 90-80"/></g><path stroke="url(#j)" stroke-width="2" d="m0 0 1-150" transform="translate(900 250)"/><text text-anchor="middle" dominant-baseline="middle" font-size="16" fill="#EBF6EA" font-variant="small-caps" font-family="Tahoma, Geneva, Verdana, sans-serif" transform="translate(900 250)">
            mining agent
        </text><g transform="matrix(.2 0 0 .2 600 400)"><circle r="300" fill="#63A4E0" fill-opacity=".05" stroke="#63A4E0" stroke-width="2" stroke-opacity=".5" stroke-dasharray="20,10"/>/&gt;<use href="#l" x="-150.21" y="-130.735" fill="#63A4E0"/><use href="#l" x="150.21" y="-130.735" fill="#1E69AF"/><use href="#l" x="-150.21" y="130.735" fill="#6D90B0"/><use href="#l" x="150.21" y="130.735" fill="#8AC6FF"/><path stroke="url(#h)" stroke-width="4" d="m0 0-90-80"/><path stroke="url(#i)" stroke-width="4" d="m0 0 90-80"/><path stroke="url(#m)" stroke-width="4" d="m0 0-90 80"/><path stroke="url(#n)" stroke-width="4" d="m0 0 90 80"/></g><path stroke="url(#j)" stroke-width="2" d="m0 0 1-300" transform="translate(600 400)"/><text text-anchor="middle" dominant-baseline="middle" font-size="16" fill="#EBF6EA" font-variant="small-caps" font-family="Tahoma, Geneva, Verdana, sans-serif" transform="translate(600 400)">
            gaming agents
        </text></svg>