<svg viewBox="0 0 800 400" xmlns="http://www.w3.org/2000/svg"><defs><g id="e"><rect x="-60" y="-30" width="120" height="60" rx="15" ry="15" stroke="#91FC79" stroke-width="2" fill="url(#a)" fill-opacity=".8"/><text text-anchor="middle" dominant-baseline="middle" font-size="20" fill="#EBF6EA" font-variant="small-caps" font-family="'Segoe UI', Tahoma, Geneva, Verdana, sans-serif">
                sender
            </text></g><g id="g"><use href="#b" y="-630"/><use href="#b" y="-560"/><use href="#b" y="-490"/><use href="#b" y="-420"/><use href="#b" y="-350"/><use href="#b" y="-280"/><use href="#b" y="-210"/><use href="#b" y="-140"/><use href="#b" y="-70"/><use href="#b"/><use href="#b" y="70"/><use href="#b" y="140"/><use href="#b" y="210"/><use href="#b" y="280"/><use href="#b" y="350"/><use href="#b" y="420"/><use href="#b" y="490"/><use href="#b" y="560"/><use href="#b" y="630"/></g><g id="h"><ellipse rx="80" ry="30" fill="#F4BB40" fill-opacity=".25" stroke="#F4BB40" stroke-width="2"/><text text-anchor="middle" dominant-baseline="middle" font-size="20" fill="#fff" font-variant="small-caps">
                mempool
            </text></g><g id="j"><rect x="-70" y="-40" width="140" height="80" rx="15" ry="15" stroke="#F4BB40" stroke-width="2" fill="#F4BB40" fill-opacity=".1"/><rect x="-60" y="-30" width="140" height="80" rx="15" ry="15" stroke="#F4BB40" stroke-opacity=".25" stroke-width="2" fill="#F4BB40" fill-opacity=".05"/><rect x="-50" y="-20" width="140" height="80" rx="15" ry="15" stroke="#F4BB40" stroke-opacity=".05" stroke-width="2" fill="#F4BB40" fill-opacity="0"/><text text-anchor="middle" dominant-baseline="middle" font-size="20" fill="#fff" font-variant="small-caps" font-family="'Segoe UI', Tahoma, Geneva, Verdana, sans-serif">
                validators
            </text></g><g id="l"><use href="#c" x="55" fill="#F09336"/><use href="#c" fill="#F19E38"/><use href="#c" x="-55" fill="#F3B03D"/><text x="75" y="-45" text-anchor="end" dominant-baseline="middle" font-size="20" font-variant="small-caps" fill="#fff" font-family="'Segoe UI', Tahoma, Geneva, Verdana, sans-serif">
                new block
            </text></g><g id="n"><rect x="-50" y="-20" width="100" height="40" rx="15" ry="15" stroke="#6464F6" stroke-width="2" fill="url(#d)" fill-opacity=".9"/><text text-anchor="middle" dominant-baseline="middle" font-size="20" fill="#fff" font-variant="small-caps" font-family="'Segoe UI', Tahoma, Geneva, Verdana, sans-serif">
                rpc
            </text></g><g id="p"><rect x="-60" y="-30" width="120" height="60" rx="15" ry="15" stroke="#91FC79" stroke-width="2" fill="url(#a)" fill-opacity=".8"/><text text-anchor="middle" dominant-baseline="middle" font-size="20" fill="#fff" font-variant="small-caps" font-family="'Segoe UI', Tahoma, Geneva, Verdana, sans-serif">
                recipient
            </text></g><linearGradient id="a" x1="0%" y1="0%" x2="100%" y2="0%"><stop offset="0%" stop-color="#5B8F5E"/><stop offset="100%" stop-color="#3F594F"/></linearGradient><linearGradient id="d" x1="0%" y1="0%" x2="100%" y2="0%"><stop offset="0%" stop-color="#201F3B"/><stop offset="100%" stop-color="#262541"/></linearGradient><path id="b" fill="#F4BB40" d="m0-30 20 60L0 20l-20 10z"/><path id="c" d="M40 0 20 34.64h-40L-40 0l20-34.64h40z"/></defs><use href="#e" x="100" y="290"/><mask id="f"><path fill="#fff" d="M80 100h80v150H80z"/></mask><g mask="url(#f)"><g transform="matrix(.3 0 0 .3 100 105)"><use href="#g"><animateTransform attributeName="transform" type="translate" from="0 70" to="0 0" dur="0.6s" repeatCount="indefinite"/></use></g></g><use href="#h" x="100" y="60"/><mask id="i"><path fill="#fff" d="M185 40h110v40H185z"/></mask><g mask="url(#i)"><g transform="matrix(0 .3 -.3 0 200 60)"><use href="#g"><animateTransform attributeName="transform" type="translate" from="0 70" to="0 0" dur="0.6s" repeatCount="indefinite"/></use></g></g><use href="#j" x="370" y="60"/><mask id="k"><path fill="#fff" d="M455 40h115v40H455z"/></mask><g mask="url(#k)"><g transform="matrix(0 .3 -.3 0 450 60)"><use href="#g"><animateTransform attributeName="transform" type="translate" from="0 70" to="0 0" dur="0.6s" repeatCount="indefinite"/></use></g></g><use href="#l" x="670" y="60"/><mask id="m"><path fill="#fff" d="M650 100h40v45h-40z"/></mask><g mask="url(#m)"><g transform="matrix(-.3 0 0 -.3 670 120)"><use href="#g"><animateTransform attributeName="transform" type="translate" from="0 70" to="0 0" dur="0.6s" repeatCount="indefinite"/></use></g></g><use href="#n" x="670" y="170"/><mask id="o"><path fill="#fff" d="M650 195h40v60h-40z"/></mask><g mask="url(#o)"><g transform="matrix(-.3 0 0 -.3 670 230)"><use href="#g"><animateTransform attributeName="transform" type="translate" from="0 70" to="0 0" dur="0.6s" repeatCount="indefinite"/></use></g></g><use href="#p" x="670" y="290"/></svg>