<svg viewBox="0 0 800 400" xmlns="http://www.w3.org/2000/svg"><defs><g id="h"><rect x="-60" y="-30" width="120" height="60" rx="15" ry="15" stroke="#91FC79" stroke-width="2" fill="url(#a)" fill-opacity=".8"/><text text-anchor="middle" dominant-baseline="middle" font-size="20" fill="#EBF6EA" font-variant="small-caps" font-family="'Segoe UI', Tahoma, Geneva, Verdana, sans-serif">
                sender
            </text></g><g id="f"><use href="#b" y="-630"/><use href="#b" y="-560"/><use href="#b" y="-490"/><use href="#b" y="-420"/><use href="#b" y="-350"/><use href="#b" y="-280"/><use href="#b" y="-210"/><use href="#b" y="-140"/><use href="#b" y="-70"/><use href="#b"/><use href="#b" y="70"/><use href="#b" y="140"/><use href="#b" y="210"/><use href="#b" y="280"/><use href="#b" y="350"/><use href="#b" y="420"/><use href="#b" y="490"/><use href="#b" y="560"/><use href="#b" y="630"/></g><g id="c"><rect x="-70" y="-30" width="140" height="60" rx="15" ry="15" stroke="#F4BB40" stroke-width="2" fill="#F4BB40" fill-opacity=".1"/><text text-anchor="middle" dominant-baseline="middle" font-size="20" fill="#fff" font-variant="small-caps" font-family="'Segoe UI', Tahoma, Geneva, Verdana, sans-serif">
                uniqueness oracle
            </text></g><g id="d"><rect x="-70" y="-30" width="140" height="60" rx="30" ry="30" stroke="#F3B03D" stroke-width="2" fill="#F3B03D"/><text text-anchor="middle" dominant-baseline="middle" font-size="20" fill="#222" font-variant="small-caps" font-family="'Segoe UI', Tahoma, Geneva, Verdana, sans-serif">
                consensus
            </text></g><g id="j"><rect x="-60" y="-30" width="120" height="60" rx="15" ry="15" stroke="#91FC79" stroke-width="2" fill="url(#a)" fill-opacity=".8"/><text text-anchor="middle" dominant-baseline="middle" font-size="20" fill="#fff" font-variant="small-caps" font-family="'Segoe UI', Tahoma, Geneva, Verdana, sans-serif">
                recipient
            </text></g><linearGradient id="a" x1="0%" y1="0%" x2="100%" y2="0%"><stop offset="0%" stop-color="#5B8F5E"/><stop offset="100%" stop-color="#3F594F"/></linearGradient><path id="b" fill="#F4BB40" d="m0-30 20 60L0 20l-20 10z"/></defs><use href="#c" x="400" y="200"/><use href="#d" x="400" y="50"/><mask id="e"><path fill="#fff" d="M360 90h80v70h-80z"/></mask><g mask="url(#e)"><g transform="matrix(.3 0 0 .3 390 100)"><use href="#f"><animateTransform attributeName="transform" type="translate" values="0 70; 0 0; 0 0" keyTimes="0;0.5;1" dur="2s" repeatCount="indefinite"/></use></g></g><g mask="url(#e)"><g transform="matrix(-.3 0 0 -.3 410 100)"><use href="#f"><animateTransform attributeName="transform" type="translate" values="0 70; 0 0; 0 0" keyTimes="0;0.5;1" dur="2s" begin="1s" repeatCount="indefinite"/></use></g></g><mask id="g"><path fill="#fff" d="M360 240h80v70h-80z"/></mask><g mask="url(#g)"><g transform="matrix(.3 0 0 .3 390 400)"><use href="#f"><animateTransform attributeName="transform" type="translate" values="0 70; 0 0; 0 0; 0 0" keyTimes="0;0.3;0.6;1" dur="1s" repeatCount="indefinite"/></use></g></g><text x="370" y="275" text-anchor="end" dominant-baseline="middle" font-size="16" fill="#F4BB40" font-style="italic" font-family="'Segoe UI', Tahoma, Geneva, Verdana, sans-serif">
        h(tx)
    </text><g mask="url(#g)"><g transform="matrix(-.3 0 0 -.3 410 400)"><use href="#f"><animateTransform attributeName="transform" type="translate" values="0 70; 0 0; 0 0; 0 0" keyTimes="0;0.3;0.6;1" dur="1s" begin="0.3s" repeatCount="indefinite"/></use></g></g><text x="430" y="275" dominant-baseline="middle" font-size="16" fill="#F4BB40" font-style="italic" font-family="'Segoe UI', Tahoma, Geneva, Verdana, sans-serif">
        π
        <tspan dx="0" dy="6" font-size="10">inc</tspan>
    </text><use href="#h" x="400" y="350"/><mask id="i"><path fill="#fff" d="M470 330h110v80H470z"/></mask><text x="525" y="330" text-anchor="middle" dominant-baseline="middle" font-size="16" fill="#F4BB40" font-style="italic" font-family="'Segoe UI', Tahoma, Geneva, Verdana, sans-serif">
        tx, π
        <tspan dx="0" dy="6" font-size="10">inc</tspan>
    </text><g mask="url(#i)"><g transform="matrix(0 .3 -.3 0 480 350)"><use href="#f"><animateTransform attributeName="transform" type="translate" values="0 70; 0 0; 0 0; 0 0" keyTimes="0;0.3;0.6;1" dur="1s" begin="0.6s" repeatCount="indefinite"/></use></g></g><use href="#j" x="650" y="350"/></svg>